<?xml version="1.0" standalone="no"?>
<svg xmlns:xlink="http://www.w3.org/1999/xlink" id="wave" style="transform:rotate(0deg); transition: 0.3s" viewBox="0 0 1440 490" version="1.1" xmlns="http://www.w3.org/2000/svg"><defs><linearGradient id="sw-gradient-0" x1="0" x2="0" y1="1" y2="0"><stop stop-color="rgba(19, 206, 245, 1)" offset="0%"/><stop stop-color="rgba(0, 164.163, 198.401, 1)" offset="100%"/></linearGradient></defs><path style="transform:translate(0, 0px); opacity:1" fill="url(#sw-gradient-0)" d="M0,98L26.7,130.7C53.3,163,107,229,160,253.2C213.3,278,267,261,320,261.3C373.3,261,427,278,480,277.7C533.3,278,587,261,640,261.3C693.3,261,747,278,800,294C853.3,310,907,327,960,310.3C1013.3,294,1067,245,1120,236.8C1173.3,229,1227,261,1280,253.2C1333.3,245,1387,196,1440,204.2C1493.3,212,1547,278,1600,285.8C1653.3,294,1707,245,1760,187.8C1813.3,131,1867,65,1920,73.5C1973.3,82,2027,163,2080,220.5C2133.3,278,2187,310,2240,326.7C2293.3,343,2347,343,2400,326.7C2453.3,310,2507,278,2560,269.5C2613.3,261,2667,278,2720,302.2C2773.3,327,2827,359,2880,383.8C2933.3,408,2987,425,3040,375.7C3093.3,327,3147,212,3200,212.3C3253.3,212,3307,327,3360,367.5C3413.3,408,3467,376,3520,334.8C3573.3,294,3627,245,3680,196C3733.3,147,3787,98,3813,73.5L3840,49L3840,490L3813.3,490C3786.7,490,3733,490,3680,490C3626.7,490,3573,490,3520,490C3466.7,490,3413,490,3360,490C3306.7,490,3253,490,3200,490C3146.7,490,3093,490,3040,490C2986.7,490,2933,490,2880,490C2826.7,490,2773,490,2720,490C2666.7,490,2613,490,2560,490C2506.7,490,2453,490,2400,490C2346.7,490,2293,490,2240,490C2186.7,490,2133,490,2080,490C2026.7,490,1973,490,1920,490C1866.7,490,1813,490,1760,490C1706.7,490,1653,490,1600,490C1546.7,490,1493,490,1440,490C1386.7,490,1333,490,1280,490C1226.7,490,1173,490,1120,490C1066.7,490,1013,490,960,490C906.7,490,853,490,800,490C746.7,490,693,490,640,490C586.7,490,533,490,480,490C426.7,490,373,490,320,490C266.7,490,213,490,160,490C106.7,490,53,490,27,490L0,490Z"/></svg>